<mxfile modified="2022-05-04T23:35:41.151Z" host="app.diagrams.net" agent="5.0 (Windows NT 10.0; Win64; x64) AppleWebKit/537.36 (KHTML, like Gecko) Chrome/100.0.4896.127 Safari/537.36 Edg/100.0.1185.50" etag="vOpOvMRFqdK8OR9M8mSC" compressed="false" version="17.5.0" type="google">
  <diagram id="Vj6hBDHDBvmNjQMRtcbF" name="Deployment/Decisions Matrix">
    <mxGraphModel grid="1" page="1" gridSize="10" guides="1" tooltips="1" connect="1" arrows="1" fold="1" pageScale="1" pageWidth="827" pageHeight="1169" math="0" shadow="0">
      <root>
        <mxCell id="0" />
        <mxCell id="1" parent="0" />
        <mxCell id="n3i_yILKXFmg-soJJN9F-1" value="Manual Operations" style="rounded=0;whiteSpace=wrap;html=1;fillColor=#f8cecc;strokeColor=#b85450;" vertex="1" parent="1">
          <mxGeometry x="220" y="250" width="80" height="40" as="geometry" />
        </mxCell>
        <mxCell id="n3i_yILKXFmg-soJJN9F-2" value="Manual Operation Scripting" style="rounded=0;whiteSpace=wrap;html=1;fillColor=#ffe6cc;strokeColor=#d79b00;" vertex="1" parent="1">
          <mxGeometry x="310" y="250" width="80" height="40" as="geometry" />
        </mxCell>
        <mxCell id="n3i_yILKXFmg-soJJN9F-3" value="Infrastructure as Code" style="rounded=0;whiteSpace=wrap;html=1;fillColor=#fff2cc;strokeColor=#d6b656;" vertex="1" parent="1">
          <mxGeometry x="490" y="250" width="80" height="40" as="geometry" />
        </mxCell>
        <mxCell id="n3i_yILKXFmg-soJJN9F-4" value="Idempotent Infrastructure as Code" style="rounded=0;whiteSpace=wrap;html=1;fillColor=#d5e8d4;strokeColor=#82b366;" vertex="1" parent="1">
          <mxGeometry x="580" y="250" width="80" height="40" as="geometry" />
        </mxCell>
        <mxCell id="n3i_yILKXFmg-soJJN9F-6" value="Infrastructure as Code via Pipeline" style="rounded=0;whiteSpace=wrap;html=1;fillColor=#d5e8d4;strokeColor=#82b366;" vertex="1" parent="1">
          <mxGeometry x="580" y="300" width="80" height="40" as="geometry" />
        </mxCell>
        <mxCell id="n3i_yILKXFmg-soJJN9F-7" value="Configuration Settings in Repository" style="rounded=0;whiteSpace=wrap;html=1;fillColor=#f8cecc;strokeColor=#b85450;" vertex="1" parent="1">
          <mxGeometry x="220" y="350" width="80" height="40" as="geometry" />
        </mxCell>
        <mxCell id="n3i_yILKXFmg-soJJN9F-8" value="Configuration Settings in Documentation" style="rounded=0;whiteSpace=wrap;html=1;fillColor=#ffe6cc;strokeColor=#d79b00;" vertex="1" parent="1">
          <mxGeometry x="310" y="350" width="80" height="40" as="geometry" />
        </mxCell>
        <mxCell id="n3i_yILKXFmg-soJJN9F-9" value="Configuration in KeyStore&lt;br&gt;only" style="rounded=0;whiteSpace=wrap;html=1;fillColor=#fff2cc;strokeColor=#d6b656;" vertex="1" parent="1">
          <mxGeometry x="490" y="350" width="80" height="40" as="geometry" />
        </mxCell>
        <mxCell id="n3i_yILKXFmg-soJJN9F-10" value="Team Access to Config Settings" style="rounded=0;whiteSpace=wrap;html=1;fillColor=#f8cecc;strokeColor=#b85450;" vertex="1" parent="1">
          <mxGeometry x="220" y="470" width="80" height="90" as="geometry" />
        </mxCell>
        <mxCell id="n3i_yILKXFmg-soJJN9F-11" value="Restricted access to config settings code &amp;amp; documentaiton" style="rounded=0;whiteSpace=wrap;html=1;fillColor=#ffe6cc;strokeColor=#d79b00;" vertex="1" parent="1">
          <mxGeometry x="310" y="470" width="80" height="90" as="geometry" />
        </mxCell>
        <mxCell id="n3i_yILKXFmg-soJJN9F-24" value="Instructions" style="rounded=0;whiteSpace=wrap;html=1;fillColor=#f5f5f5;fontColor=#333333;strokeColor=#666666;" vertex="1" parent="1">
          <mxGeometry x="120" y="250" width="80" height="40" as="geometry" />
        </mxCell>
        <mxCell id="n3i_yILKXFmg-soJJN9F-25" value="Configuration&lt;br&gt;Storage" style="rounded=0;whiteSpace=wrap;html=1;fillColor=#f5f5f5;fontColor=#333333;strokeColor=#666666;" vertex="1" parent="1">
          <mxGeometry x="120" y="350" width="80" height="40" as="geometry" />
        </mxCell>
        <mxCell id="n3i_yILKXFmg-soJJN9F-26" value="Security" style="rounded=0;whiteSpace=wrap;html=1;fillColor=#f5f5f5;fontColor=#333333;strokeColor=#666666;" vertex="1" parent="1">
          <mxGeometry x="120" y="400" width="80" height="160" as="geometry" />
        </mxCell>
        <mxCell id="n3i_yILKXFmg-soJJN9F-28" value="Execution" style="rounded=0;whiteSpace=wrap;html=1;fillColor=#f5f5f5;fontColor=#333333;strokeColor=#666666;" vertex="1" parent="1">
          <mxGeometry x="120" y="300" width="80" height="40" as="geometry" />
        </mxCell>
        <mxCell id="n3i_yILKXFmg-soJJN9F-29" value="Manual Execution" style="rounded=0;whiteSpace=wrap;html=1;fillColor=#f8cecc;strokeColor=#b85450;" vertex="1" parent="1">
          <mxGeometry x="220" y="300" width="80" height="40" as="geometry" />
        </mxCell>
        <mxCell id="n3i_yILKXFmg-soJJN9F-30" value="Primary Infrastructure &lt;br&gt;Type" style="rounded=0;whiteSpace=wrap;html=1;fillColor=#f5f5f5;fontColor=#333333;strokeColor=#666666;" vertex="1" parent="1">
          <mxGeometry x="120" y="200" width="80" height="40" as="geometry" />
        </mxCell>
        <mxCell id="n3i_yILKXFmg-soJJN9F-31" value="Physical&lt;br&gt;Infrastructure" style="rounded=0;whiteSpace=wrap;html=1;fillColor=#f8cecc;strokeColor=#b85450;" vertex="1" parent="1">
          <mxGeometry x="220" y="200" width="80" height="40" as="geometry" />
        </mxCell>
        <mxCell id="n3i_yILKXFmg-soJJN9F-32" value="Virtual Infrastructure" style="rounded=0;whiteSpace=wrap;html=1;fillColor=#ffe6cc;strokeColor=#d79b00;" vertex="1" parent="1">
          <mxGeometry x="310" y="200" width="80" height="40" as="geometry" />
        </mxCell>
        <mxCell id="n3i_yILKXFmg-soJJN9F-33" value="IaaS" style="rounded=0;whiteSpace=wrap;html=1;fillColor=#ffe6cc;strokeColor=#d79b00;" vertex="1" parent="1">
          <mxGeometry x="400" y="200" width="80" height="40" as="geometry" />
        </mxCell>
        <mxCell id="n3i_yILKXFmg-soJJN9F-34" value="Container" style="rounded=0;whiteSpace=wrap;html=1;fillColor=#d5e8d4;strokeColor=#82b366;" vertex="1" parent="1">
          <mxGeometry x="580" y="220" width="80" height="20" as="geometry" />
        </mxCell>
        <mxCell id="n3i_yILKXFmg-soJJN9F-35" value="PaaS" style="rounded=0;whiteSpace=wrap;html=1;fillColor=#d5e8d4;strokeColor=#82b366;" vertex="1" parent="1">
          <mxGeometry x="580" y="200" width="80" height="20" as="geometry" />
        </mxCell>
        <mxCell id="n3i_yILKXFmg-soJJN9F-37" value="&lt;font style=&quot;font-size: 12px&quot;&gt;Diagram: Deployment - Decision Matrix&lt;/font&gt;" style="text;strokeColor=none;fillColor=none;html=1;fontSize=24;fontStyle=2;verticalAlign=middle;align=left;shadow=0;glass=0;comic=0;opacity=30;fontColor=#808080;" vertex="1" parent="1">
          <mxGeometry x="120" y="570" width="560" height="20" as="geometry" />
        </mxCell>
        <mxCell id="n3i_yILKXFmg-soJJN9F-38" value="Allow insecure connections in Dev" style="rounded=0;whiteSpace=wrap;html=1;fillColor=#f8cecc;strokeColor=#b85450;" vertex="1" parent="1">
          <mxGeometry x="220" y="400" width="80" height="60" as="geometry" />
        </mxCell>
        <mxCell id="n3i_yILKXFmg-soJJN9F-39" value="Allow only secure connections from the start" style="rounded=0;whiteSpace=wrap;html=1;fillColor=#d5e8d4;strokeColor=#82b366;" vertex="1" parent="1">
          <mxGeometry x="580" y="400" width="80" height="60" as="geometry" />
        </mxCell>
        <mxCell id="n3i_yILKXFmg-soJJN9F-40" value="more effort to stand up, &lt;br&gt;higher value long term" style="endArrow=classic;html=1;rounded=0;" edge="1" parent="1">
          <mxGeometry width="50" height="50" relative="1" as="geometry">
            <mxPoint x="490" y="130" as="sourcePoint" />
            <mxPoint x="660" y="130" as="targetPoint" />
          </mxGeometry>
        </mxCell>
        <mxCell id="n3i_yILKXFmg-soJJN9F-41" value="easier to get started&lt;br&gt;(often legacy approaches)" style="endArrow=classic;html=1;rounded=0;" edge="1" parent="1">
          <mxGeometry width="50" height="50" relative="1" as="geometry">
            <mxPoint x="480" y="130" as="sourcePoint" />
            <mxPoint x="220" y="130" as="targetPoint" />
          </mxGeometry>
        </mxCell>
        <mxCell id="n3i_yILKXFmg-soJJN9F-42" value="Hosting" style="rounded=0;whiteSpace=wrap;html=1;fillColor=#f5f5f5;fontColor=#333333;strokeColor=#666666;" vertex="1" parent="1">
          <mxGeometry x="120" y="150" width="80" height="40" as="geometry" />
        </mxCell>
        <mxCell id="n3i_yILKXFmg-soJJN9F-43" value="Organisation&lt;br&gt;DataCenters (&quot;onprem&quot;)" style="rounded=0;whiteSpace=wrap;html=1;fillColor=#f8cecc;strokeColor=#b85450;" vertex="1" parent="1">
          <mxGeometry x="220" y="150" width="80" height="40" as="geometry" />
        </mxCell>
        <mxCell id="n3i_yILKXFmg-soJJN9F-44" value="Vendor&amp;nbsp;&lt;br&gt;DataCenters" style="rounded=0;whiteSpace=wrap;html=1;fillColor=#ffe6cc;strokeColor=#d79b00;" vertex="1" parent="1">
          <mxGeometry x="310" y="150" width="80" height="40" as="geometry" />
        </mxCell>
        <mxCell id="n3i_yILKXFmg-soJJN9F-45" value="Cloud Service DataCenters" style="rounded=0;whiteSpace=wrap;html=1;fillColor=#d5e8d4;strokeColor=#82b366;" vertex="1" parent="1">
          <mxGeometry x="580" y="150" width="80" height="40" as="geometry" />
        </mxCell>
        <mxCell id="n3i_yILKXFmg-soJJN9F-46" value="Audited Restricted access to config settings + deployment service agent" style="rounded=0;whiteSpace=wrap;html=1;fillColor=#d5e8d4;strokeColor=#82b366;" vertex="1" parent="1">
          <mxGeometry x="580" y="470" width="80" height="90" as="geometry" />
        </mxCell>
        <mxCell id="n3i_yILKXFmg-soJJN9F-47" value="Configuration in KeyStore&lt;br&gt;only + MSI" style="rounded=0;whiteSpace=wrap;html=1;fillColor=#d5e8d4;strokeColor=#82b366;" vertex="1" parent="1">
          <mxGeometry x="580" y="350" width="80" height="40" as="geometry" />
        </mxCell>
      </root>
    </mxGraphModel>
  </diagram>
</mxfile>
